HIERARCHY
ROOT root
{
	OFFSET 0.000000 0.000000 0.000000
	CHANNELS 6 Xposition Yposition Zposition Zrotation Yrotation Xrotation
	JOINT lhip
	{
		OFFSET 0.058581 -0.082280 -0.017664
		CHANNELS 3 Zrotation Yrotation Xrotation
		JOINT lknee
		{
			OFFSET 0.043451 -0.386469 0.008037
			CHANNELS 3 Zrotation Yrotation Xrotation
			JOINT lankle
			{
				OFFSET -0.014790 -0.426874 -0.037428
				CHANNELS 3 Zrotation Yrotation Xrotation
				JOINT ltoe
				{
					OFFSET 0.041054 -0.060286 0.122042
					CHANNELS 3 Zrotation Yrotation Xrotation
					End Site
					{
						OFFSET 0.000000 0.000000 0.000000
					}
				}
			}
		}
	}
	JOINT rhip
	{
		OFFSET -0.060310 -0.090513 -0.013543
		CHANNELS 3 Zrotation Yrotation Xrotation
		JOINT rknee
		{
			OFFSET -0.043257 -0.383688 -0.004843
			CHANNELS 3 Zrotation Yrotation Xrotation
			JOINT rankle
			{
				OFFSET 0.019056 -0.420046 -0.034562
				CHANNELS 3 Zrotation Yrotation Xrotation
				JOINT rtoe
				{
					OFFSET -0.034840 -0.062106 0.130323
					CHANNELS 3 Zrotation Yrotation Xrotation
					End Site
					{
						OFFSET 0.000000 0.000000 0.000000
					}
				}
			}
		}
	}
	JOINT lowerback
	{
		OFFSET 0.004439 0.124404 -0.038385
		CHANNELS 3 Zrotation Yrotation Xrotation
		JOINT upperback
		{
			OFFSET 0.004488 0.137956 0.026820
			CHANNELS 3 Zrotation Yrotation Xrotation
			JOINT chest
			{
				OFFSET -0.002265 0.056032 0.002855
				CHANNELS 3 Zrotation Yrotation Xrotation
				JOINT lowerneck
				{
					OFFSET -0.013390 0.211636 -0.033468
					CHANNELS 3 Zrotation Yrotation Xrotation
					JOINT upperneck
					{
						OFFSET 0.010113 0.088937 0.050410
						CHANNELS 3 Zrotation Yrotation Xrotation
						End Site
						{
							OFFSET 0.000000 0.000000 0.000000
						}
					}
				}
				JOINT lclavicle
				{
					OFFSET 0.071702 0.114000 -0.018898
					CHANNELS 3 Zrotation Yrotation Xrotation
					JOINT lshoulder
					{
						OFFSET 0.122921 0.045205 -0.019046
						CHANNELS 3 Zrotation Yrotation Xrotation
						JOINT lelbow
						{
							OFFSET 0.255332 -0.015649 -0.022946
							CHANNELS 3 Zrotation Yrotation Xrotation
							JOINT lwrist
							{
								OFFSET 0.265709 0.012698 -0.007375
								CHANNELS 3 Zrotation Yrotation Xrotation
								End Site
								{
									OFFSET 0.000000 0.000000 0.000000
								}
							}
						}
					}
				}
				JOINT rclavicle
				{
					OFFSET -0.082954 0.112472 -0.023707
					CHANNELS 3 Zrotation Yrotation Xrotation
					JOINT rshoulder
					{
						OFFSET -0.113228 0.046853 -0.008472
						CHANNELS 3 Zrotation Yrotation Xrotation
						JOINT relbow
						{
							OFFSET -0.260127 -0.014369 -0.031269
							CHANNELS 3 Zrotation Yrotation Xrotation
							JOINT rwrist
							{
								OFFSET -0.269108 0.006794 -0.006027
								CHANNELS 3 Zrotation Yrotation Xrotation
								End Site
								{
									OFFSET 0.000000 0.000000 0.000000
								}
							}
						}
					}
				}
			}
		}
	}
}
MOTION
Frames: 17
Frame Time: 0.033333
0.777921 2.277268 1.038852 13.210979 -8.888640 79.405842 -5.879604 9.781379 19.545650 -5.074837 -17.098895 3.419740 1.898316 13.478892 -20.779838 0.000000 -0.000000 0.000000 -3.909825 -2.792065 -9.615831 4.469063 1.961769 35.379498 4.230228 -16.963167 -18.651954 0.000000 -0.000000 0.000000 -1.024276 -17.157100 3.757794 -11.323229 -17.304398 -22.120385 -6.057106 23.745086 34.960672 2.241223 2.375843 5.497290 24.671609 1.998485 -4.352461 -36.887130 -20.762856 3.491312 -9.297754 -1.139958 1.499282 -3.583146 -34.368204 -12.027911 17.326559 -2.636800 2.816803 55.099163 34.877742 25.737920 49.132611 -3.023146 -3.631317 -9.261498 27.527922 -15.741941 -6.941470 0.434417 -8.058038 
0.784870 2.259710 1.038702 11.686310 -9.254826 79.752621 -6.620911 10.768622 20.546399 -4.588634 -15.853863 3.695423 1.360199 13.648989 -21.628443 0.000000 -0.000000 0.000000 -3.144153 -3.110059 -10.186763 3.773054 1.610678 26.983959 3.677611 -17.648746 -17.994013 0.000000 -0.000000 0.000000 -0.934427 -16.981780 3.076752 -11.670606 -17.097673 -20.986529 -6.604945 23.320205 34.147218 2.331591 1.921872 7.022068 24.756661 1.986201 -4.924484 -36.995623 -20.346004 3.608279 -8.527650 -1.443163 1.930649 -2.423582 -38.383257 -12.349442 16.348905 -2.882344 2.219015 54.342389 35.145872 25.489020 50.164944 -3.087581 -3.136971 -9.867605 27.356216 -15.559194 -6.325091 0.304608 -8.458852 
0.790967 2.241585 1.036908 10.064337 -9.818363 80.425838 -7.303841 11.652020 20.956290 -4.792024 -14.846197 4.556280 0.657191 13.685422 -22.406515 0.000000 -0.000000 0.000000 -2.260498 -3.661877 -10.445064 2.258473 -0.085615 18.038365 3.110651 -20.216904 -18.325033 0.000000 -0.000000 0.000000 -0.923243 -16.677648 1.892598 -12.074396 -16.822674 -19.807892 -6.893636 23.038058 33.629867 2.152173 2.012010 7.753998 24.870529 2.476053 -5.588280 -36.813759 -19.837255 3.651936 -8.531006 -1.756299 2.286648 -1.460920 -41.909594 -12.444587 16.118888 -2.402846 1.837932 53.349723 35.270499 25.204569 51.140719 -3.044993 -2.871996 -10.338845 27.439652 -15.312190 -6.139539 0.009552 -9.012165 
0.796074 2.222093 1.034554 8.797573 -10.290871 81.126784 -7.454989 12.196534 21.093351 -5.567441 -14.260847 6.202244 -0.441125 13.327170 -23.407571 0.000000 -0.000000 0.000000 -1.498454 -4.404476 -10.212530 1.243093 -2.634211 10.209696 2.393672 -22.334547 -18.693356 0.000000 -0.000000 0.000000 -0.584973 -16.524351 0.507353 -12.611710 -16.622247 -18.629567 -7.349188 22.739333 33.142988 2.389092 2.481805 8.162408 24.818700 2.658223 -6.555480 -36.660962 -19.165195 3.656399 -8.627146 -2.012136 2.823047 -1.182274 -44.391010 -11.637361 15.036367 -3.140809 1.840443 52.370876 35.406832 24.880367 52.125995 -3.033064 -2.768399 -10.637597 27.257952 -15.068341 -5.248281 0.421147 -9.551333 
0.801286 2.202559 1.032231 7.776044 -10.706502 81.727614 -7.506784 12.365377 20.999105 -6.516188 -14.233654 8.720657 -1.516630 12.743871 -24.037845 0.000000 -0.000000 0.000000 -1.081699 -4.701425 -10.095479 0.702999 -4.337726 5.999200 1.625401 -24.103037 -19.500977 0.000000 -0.000000 0.000000 0.082773 -16.460163 -0.397942 -13.094546 -16.417901 -17.778787 -7.736311 22.516953 32.612250 2.509006 2.403083 8.812804 24.874763 2.787157 -7.313921 -37.328099 -18.797078 4.033344 -8.358385 -1.759737 3.216544 -1.269225 -46.350016 -10.281308 12.169921 -3.914307 2.833888 51.812005 35.710224 25.046365 52.519361 -3.404455 -2.902206 -10.895907 27.271929 -14.181107 -3.497691 0.778853 -9.484677 
0.806411 2.180963 1.030504 6.678901 -11.188546 82.294448 -7.847503 12.127892 20.973015 -7.461158 -14.351052 11.288116 -2.121714 12.795732 -23.788134 0.000000 -0.000000 0.000000 -1.208739 -4.775792 -10.378320 0.272400 -5.522681 6.657552 1.108377 -25.160908 -19.999407 0.000000 -0.000000 0.000000 0.995472 -16.433166 -1.382876 -13.524204 -16.068745 -17.075028 -8.104313 22.436334 32.100726 2.052374 2.147206 9.409143 24.608637 3.650139 -8.087563 -37.955471 -18.536329 4.476954 -8.917857 -0.753140 4.029832 -1.347369 -47.439009 -7.961104 12.518171 -4.023454 3.952715 51.253175 35.711152 25.275229 52.384955 -3.755666 -3.383688 -10.325824 27.314143 -12.564853 -2.745238 0.853953 -8.401953 
0.810901 2.157228 1.029626 5.733910 -11.605911 82.815325 -8.024660 11.952888 20.688592 -8.547803 -14.018387 14.488816 -2.899568 12.211050 -22.869292 0.000000 -0.000000 0.000000 -1.808509 -5.009965 -9.884676 0.415568 -6.834741 8.736937 0.490199 -25.565220 -19.240498 0.000000 -0.000000 0.000000 2.066608 -16.505390 -2.584333 -13.853550 -15.931314 -16.150124 -8.601733 22.305398 31.396691 1.625437 1.993361 10.295432 23.985325 4.367842 -8.653497 -39.196590 -18.032897 5.226226 -9.198565 0.696723 4.429249 -1.285688 -47.897988 -6.096101 8.609221 -4.298277 6.473391 50.919636 35.685588 25.635288 52.096934 -4.229193 -4.082335 -10.534988 27.089138 -11.755844 0.124597 1.194274 -7.204731 
0.813975 2.132665 1.030150 4.809063 -11.604323 83.856799 -7.844465 11.295585 18.472695 -9.960388 -12.428958 20.023446 -4.220415 11.102337 -21.378168 0.000000 -0.000000 0.000000 -2.152474 -5.331667 -9.311768 0.799079 -8.031299 8.960953 -0.549137 -25.321261 -17.845989 0.000000 -0.000000 0.000000 3.703706 -16.208316 -4.170912 -13.950750 -15.851769 -15.430116 -8.939860 22.184590 30.861090 1.207317 1.584459 11.543038 23.409302 4.655917 -9.583562 -40.797617 -17.092693 5.787370 -9.553949 1.747505 4.959395 -2.163338 -47.121674 -4.219231 6.415266 -3.715009 9.118935 50.728390 35.464019 25.459086 51.515247 -5.226501 -4.859943 -10.415479 26.589791 -12.073967 1.198134 1.491923 -6.869848 
0.814620 2.107780 1.032014 2.718904 -11.446931 85.214731 -7.103519 10.429416 14.752646 -11.967842 -9.410169 27.431674 -5.762640 9.160653 -18.174950 0.000000 -0.000000 0.000000 -1.887604 -4.422033 -9.218170 1.335814 -6.803268 9.786111 -1.909630 -23.449558 -17.449557 0.000000 -0.000000 0.000000 5.394620 -15.521063 -5.687238 -14.017844 -15.479583 -14.742520 -9.168160 22.305368 30.054941 1.080945 1.617052 12.489952 22.572782 4.677163 -10.363406 -42.096022 -16.155576 6.229473 -10.352936 3.262653 5.994851 -2.558199 -45.276864 -2.974619 5.335262 -3.611990 8.653106 50.945756 35.354639 25.955055 50.997397 -5.669381 -5.072504 -10.521660 25.447966 -13.048301 0.176185 1.498033 -7.815270 
0.812392 2.083279 1.033699 -0.162014 -11.453309 86.197086 -5.783595 9.770058 10.548246 -14.583880 -6.555579 36.164883 -6.999769 7.361921 -14.330754 0.000000 -0.000000 0.000000 -1.363217 -3.529286 -8.520613 1.223944 -6.020382 10.520531 -3.074577 -22.691750 -18.058279 0.000000 -0.000000 0.000000 5.943236 -14.519718 -6.262525 -13.899443 -14.952575 -14.204162 -8.952192 22.413228 29.351353 1.089781 2.014357 13.325673 21.847403 4.819687 -10.887129 -42.511322 -15.240384 6.613553 -11.991359 4.840442 6.559623 -2.973692 -42.147797 -2.825691 4.324115 -2.373066 7.938157 51.053228 35.259780 26.628168 50.662427 -5.599081 -5.297665 -10.540074 24.528249 -14.009258 -0.500436 1.285970 -9.180527 
0.812963 2.066208 1.008334 -2.347771 -9.338017 84.539701 -3.421142 3.946814 8.231517 -18.012646 -3.755706 41.116905 -3.138759 9.613303 -7.426894 0.000000 -0.000000 0.000000 1.758755 -2.211669 -4.628148 0.759460 -5.146787 7.419176 -12.069100 -22.790849 -12.269382 0.000000 -0.000000 0.000000 -1.748429 -1.150539 -2.000027 -2.987319 -3.722178 31.231853 -5.266809 -0.210793 -11.339630 6.720252 -5.982994 -2.028582 7.658667 -3.238481 4.949122 -31.890134 -6.001273 8.357046 -41.360810 -13.956252 14.557362 8.692402 -32.685384 -4.546726 -9.357803 1.525721 10.338161 22.567863 8.354965 11.618531 61.528199 2.804796 12.646999 -12.909010 27.031237 -7.704544 2.756853 1.628966 -18.682357 
0.807181 2.042061 1.000293 -4.894479 -9.112594 84.930039 -3.272974 1.687624 2.892088 -18.471663 -2.521556 48.330393 -3.571143 10.338924 -7.065838 0.000000 -0.000000 0.000000 3.201315 -1.863589 -2.848232 0.029204 -3.032647 6.053756 -10.970626 -21.931760 -12.531080 0.000000 -0.000000 0.000000 -1.825340 0.259562 -0.185464 -2.945049 -4.056679 26.382536 -4.426753 0.305429 -8.098941 4.122940 -6.405740 0.123421 9.968137 -2.124990 2.304712 -33.439648 -6.134593 9.442993 -40.115115 -12.623826 12.003712 6.484403 -28.123935 -4.160536 -7.576854 0.916524 10.802244 25.143886 8.739121 12.581960 57.906875 4.082475 7.976174 -9.845579 26.731879 -7.990336 2.895517 1.741244 -13.445340 
0.799638 2.017296 0.997783 -8.163572 -9.355054 84.698120 -3.572319 -0.347659 -0.854129 -16.587655 -0.545021 52.977520 -1.121857 13.266778 -8.183429 0.000000 -0.000000 0.000000 3.664377 -1.989486 -0.023305 -0.126578 -0.616586 4.946352 -10.317415 -21.162400 -13.406517 0.000000 -0.000000 0.000000 -2.917083 2.424992 0.481056 -2.607993 -4.124502 25.176957 -3.761097 0.483592 -6.373818 3.012610 -6.447157 0.322065 10.834438 -1.482527 2.023533 -33.541689 -6.836412 10.358192 -40.111354 -11.326480 10.306065 5.060429 -23.741706 -4.510187 -7.066200 1.175469 10.485664 27.065723 9.536164 13.101859 55.723238 4.871072 6.100798 -8.701883 26.691790 -9.135133 2.313080 1.526401 -10.852798 
0.791598 1.993909 0.997380 -11.457279 -9.897501 84.662979 -4.247605 -2.392586 -4.366509 -13.820134 0.420478 55.257718 1.506189 16.193090 -8.442144 0.000000 -0.000000 0.000000 3.665005 -1.742509 2.313309 -0.511878 1.413917 4.503833 -9.439868 -20.409468 -14.306128 0.000000 -0.000000 0.000000 -4.015576 3.965623 1.369293 -2.645519 -4.152988 24.031707 -3.615140 0.780365 -5.701153 2.648577 -6.123288 0.053406 11.521392 -1.154579 2.223277 -33.084838 -6.274423 10.024584 -40.503211 -9.982760 9.948571 3.749728 -18.963078 -3.174105 -7.411354 1.874066 10.879947 28.566517 9.540284 13.316644 54.785285 5.578851 6.015178 -8.222965 26.467114 -10.180869 2.173253 2.195341 -9.795971 
0.783463 1.971764 0.997772 -14.756646 -10.309136 84.722861 -4.845301 -4.387877 -7.431316 -11.158192 0.273474 55.141178 3.947266 19.124378 -8.542767 0.000000 -0.000000 0.000000 3.647297 -1.485764 4.520753 -0.795975 3.521295 4.009572 -8.347290 -19.881049 -15.096374 0.000000 -0.000000 0.000000 -4.880022 5.374601 1.747895 -2.703291 -4.159514 23.236897 -3.490816 1.048776 -4.823543 1.988351 -5.807799 -0.549381 12.141268 -0.474659 2.823440 -32.672656 -5.743543 9.890108 -41.038525 -8.406543 9.197288 3.140797 -16.045567 -1.813602 -7.712346 2.621605 12.063705 29.410969 9.491240 13.324425 54.432593 6.231791 5.865499 -7.698229 26.763144 -10.517325 2.159416 2.306270 -8.640675 
0.775246 1.950451 0.998701 -18.053894 -10.901162 84.628817 -5.694796 -6.215045 -9.554967 -8.754033 -0.503524 52.014374 5.605012 20.532786 -9.240404 0.000000 -0.000000 0.000000 3.250695 -1.321720 6.830725 -1.091976 5.180984 3.520133 -7.337657 -19.185780 -15.721868 0.000000 -0.000000 0.000000 -5.894038 6.694480 2.295394 -2.722063 -4.089273 22.768311 -3.363168 1.273516 -4.389891 1.302121 -5.483778 -0.758124 12.399908 0.343467 3.157883 -32.121722 -5.053346 9.854074 -41.948656 -6.885099 9.079740 3.121981 -14.196337 -1.541618 -9.504609 3.986101 11.812766 30.071062 9.228332 13.605106 54.462950 6.998832 6.383231 -8.119613 27.204166 -11.066673 2.858287 2.129024 -8.113480 
0.767350 1.929767 0.999230 -21.184995 -11.208586 84.839111 -6.362764 -8.090846 -11.683484 -8.229195 -2.585526 47.242236 6.535710 20.681238 -10.199273 0.000000 -0.000000 0.000000 2.905778 -1.293466 8.649425 -1.239326 6.601392 3.336951 -6.366127 -18.374259 -16.419108 0.000000 -0.000000 0.000000 -6.195285 7.467880 3.207059 -3.032759 -4.110358 21.555820 -3.477349 1.557223 -4.130502 0.916899 -4.936913 -1.291604 12.587013 0.957553 3.294222 -31.672946 -3.450821 9.127048 -42.651576 -5.225797 9.424745 2.452540 -13.424088 -0.916468 -9.275468 4.237183 11.964522 30.624763 8.539436 13.814923 54.569810 7.686714 7.093584 -8.024626 27.529919 -10.979970 2.673429 2.329902 -7.587924 
